<svg xmlns="http://www.w3.org/2000/svg" viewBox="0 0 600 600" role="img" aria-labelledby="title">
  <title id="title">Modulify M3 Vue</title>
  <defs>

    <linearGradient id="orange" x1="254.64" y1="97.29" x2="254.64" y2="423.42" gradientUnits="userSpaceOnUse">
      <stop offset="0" stop-color="#ffe100" />
      <stop offset=".17" stop-color="#ffdc00" />
      <stop offset=".35" stop-color="#ffcf00" />
      <stop offset=".53" stop-color="#ffba00" />
      <stop offset=".72" stop-color="#ff9c00" />
      <stop offset=".91" stop-color="#f70" />
      <stop offset="1" stop-color="#ff6200" />
    </linearGradient>
    <linearGradient id="blue" x1="396.89" y1="189.5" x2="396.89" y2="423.42" gradientUnits="userSpaceOnUse">
      <stop offset="0" stop-color="#00c3ff" />
      <stop offset=".17" stop-color="#01beff" />
      <stop offset=".35" stop-color="#05b1ff" />
      <stop offset=".53" stop-color="#0c9cff" />
      <stop offset=".72" stop-color="#167eff" />
      <stop offset=".91" stop-color="#2359ff" />
      <stop offset="1" stop-color="#2b43ff" />
    </linearGradient>
    <linearGradient id="purple" x1="328.36" y1="94.33" x2="328.36" y2="309.87" gradientUnits="userSpaceOnUse">
      <stop offset="0" stop-color="#bf00ff" />
      <stop offset=".19" stop-color="#ba00ff" />
      <stop offset=".39" stop-color="#ad00ff" />
      <stop offset=".6" stop-color="#9800ff" />
      <stop offset=".81" stop-color="#7b00ff" />
      <stop offset="1" stop-color="#5900ff" />
    </linearGradient>
    <linearGradient id="red" x1="187.68" y1="94.33" x2="187.68" y2="309.87" gradientUnits="userSpaceOnUse">
      <stop offset="0" stop-color="#ff4968" />
      <stop offset=".2" stop-color="#fa4567" />
      <stop offset=".41" stop-color="#ed3b64" />
      <stop offset=".63" stop-color="#d82a5f" />
      <stop offset=".85" stop-color="#bb1359" />
      <stop offset="1" stop-color="#a30054" />
    </linearGradient>
    <linearGradient id="green" x1="258.02" y1="193.75" x2="258.02" y2="423.19" gradientUnits="userSpaceOnUse">
      <stop offset="0" stop-color="#6bdc09" />
      <stop offset=".18" stop-color="#66d80c" />
      <stop offset=".38" stop-color="#59cf15" />
      <stop offset=".58" stop-color="#44c025" />
      <stop offset=".79" stop-color="#26ab3b" />
      <stop offset=".99" stop-color="#018f58" />
      <stop offset="1" stop-color="#008f59" />
    </linearGradient>
  
<mask id="corner-cutout" maskUnits="userSpaceOnUse" x="0" y="0" width="600" height="600">
  <rect width="600" height="600" fill="white"/>
  <circle cx="438" cy="438" r="105" fill="black"/>
</mask>
  </defs>
<g mask="url(#corner-cutout)">
<path d="M103.59 212.55A215 215 0 0 1 292.50 85.13" fill="none" stroke="#F33B68" stroke-width="28"/>
<path d="M307.50 85.13A215 215 0 0 1 499.34 219.46" fill="none" stroke="#AD00F5" stroke-width="28"/>
<path d="M504.48 233.56A215 215 0 0 1 432.37 469.42" fill="none" stroke="#1689F7" stroke-width="28"/>
<path d="M420.23 478.24A215 215 0 0 1 179.77 478.24" fill="none" stroke="#35C623" stroke-width="28"/>
<path d="M167.63 469.42A215 215 0 0 1 97.97 226.47" fill="none" stroke="#FFA000" stroke-width="28"/>
<g transform="translate(84.75 78.8) scale(0.83984375)">
<path d="M457.18,308.47l-60.29-113.25-47.17-86.36c-8.42-14.8-26.76-15.59-36-1.29l-55.69,92.36-57.88-89.79c-9.24-14.3-23.94-12.44-32.36,2.36l-50.44,77-66.97,117.74c-1.7,2.98-1.59,6.66,.27,9.54l67.57,104.6c1.82,2.81,5.97,2.69,7.62-.21l20.57-36.17c1.02-1.79,3.73-1.6,4.38,.36,.86,2.59,2.41,4.69,4.63,5.97,6.43,3.71,16.01-.84,21.39-10.17,5.38-9.33,4.54-19.9-1.89-23.61-2.26-1.31-4.92-1.59-7.64-1-2.07,.45-3.73-1.68-2.68-3.53l24.55-43.15,24.4,28.06c-.11-4.94,4.85-9,9-9,9.96,0,18.32,6.11,24.75,18.64,4.91,9.58,7.31,25.08,.96,28.93-3.52,2.14-7.91,6.52-12.21,4.18l19.96,34.71c1.77,2.91,6.01,5.22,7.68,2.25l20.25-37.93c2.57,2.57,5.3,5.76,8.68,7.71,6.43,3.71,11.97,2.58,17.36-6.75,5.38-9.33,7.07-16.54,.64-20.25-3.53-2.04-12.18-5.25-16.39-2.89l32.69-54.32,7.49,1.93,14.14,36c-.13-4.97,4.79-2.66,8.36-4.82,6.35-3.85,23.34,3.65,28.93,12.86,5.59,9.21,6.99,26.68,.64,30.54-3.91,2.37-9.12,3.7-13.82,.64l18,36.32c1.65,2.91,4.43,.88,6.25-1.93l62.54-96.75c1.86-2.88-.55-6.55-2.25-9.53Z" fill="url(#orange)" />
<path d="M378.7,352.1c5.59,9.21,4.97,19.79-1.37,23.64-2.25,1.37-4.92,1.7-7.68,1.15-2.04-.41-3.64,1.73-2.61,3.54l23.17,40.73c1.65,2.91,5.8,3.03,7.62,.21l67.57-104.6c1.86-2.88,1.97-6.56,.27-9.54l-66.97-117.74s-41.81,40.75-46.95,51.35-24.84,69.01-24.84,69.01l21.65,38.06c1,1.76,3.6,1.58,4.33-.3,.85-2.22,2.26-4.04,4.21-5.22,6.35-3.85,16.02,.49,21.61,9.69Z" fill="url(#blue)" />
<path d="M360.57,271.87c6.35,3.85,16.02-.49,21.61-9.69,5.59-9.21,4.97-19.79-1.37-23.64-1.84-1.12-3.95-1.54-6.17-1.36-1.92,.16-3.19-1.98-2.2-3.64l26.26-44.03-47.61-83.71c-8.42-14.8-29.54-15.4-38.78-1.09l-54.3,89.04s16.91,57.18,22.05,66.61,46.83,49.51,46.83,49.51l25.5-42.75c.99-1.66,3.44-1.54,4.25,.22,.87,1.9,2.18,3.47,3.92,4.53Z" fill="url(#purple)" />
<path d="M203.72,104.7c-9.24-14.3-30.36-13.71-38.78,1.09l-47.61,83.7,26.15,43.84c.99,1.66-.28,3.75-2.21,3.63s-3.96,.28-5.68,1.27c-6.43,3.71-7.28,14.28-1.89,23.61,5.38,9.33,14.96,13.88,21.39,10.17,1.89-1.09,3.29-2.77,4.2-4.85,.77-1.77,3.26-1.86,4.25-.2l25.59,42.9s34.04-42.87,40.15-49.51,28.74-66.61,28.74-66.61l-54.3-89.04Z" fill="url(#red)" />
<path d="M311.93,357.55c-2.01-1.16-4.34-1.51-6.74-1.15-1.94,.29-3.33-1.86-2.37-3.57l24.09-42.95-23.74-39.96c-.99-1.66,.29-3.75,2.22-3.63,2.04,.13,4-.27,5.73-1.27,6.43-3.71,7.28-14.28,1.89-23.61-5.38-9.33-14.96-13.88-21.39-10.17-1.74,1-3.07,2.51-3.97,4.37-.83,1.69-3.22,1.77-4.2,.15l-25.43-42.01-25.3,41.78c-.97,1.61-3.32,1.53-4.19-.14s-2.06-2.98-3.62-3.93c-6.35-3.85-16.02,.49-21.61,9.69-5.59,9.21-4.97,19.79,1.37,23.64,1.81,1.1,3.89,1.53,6.07,1.37,1.91-.14,3.17,1.98,2.19,3.63l-23.8,40.07,23.36,38.32c1.03,1.69,3.61,1.5,4.29-.36,.84-2.31,2.28-4.2,4.28-5.42,6.35-3.85,16.02,.49,21.61,9.69,5.59,9.21,4.97,19.79-1.37,23.64-1.98,1.2-4.29,1.61-6.7,1.31-1.97-.24-3.32,1.96-2.29,3.65l24.6,40.35c1.77,2.91,6.03,2.83,7.69-.14l19.36-34.52c.96-1.71,3.48-1.63,4.28,.17,.91,2.04,2.3,3.69,4.16,4.77,6.43,3.71,16.01-.84,21.39-10.17,5.38-9.33,4.54-19.9-1.89-23.61Z" fill="url(#green)" />
</g>
</g>

<g transform="translate(438 453.5849375) scale(0.55) translate(-130.88 -113.35)">
  <path d="M161.65 0 130.88 53.29 100.11 0H0l130.88 226.69L261.76 0Z" fill="#41B883"/>
  <path d="M161.65 0 130.88 53.29 100.11 0H52.05l78.83 136.52L209.71 0Z" fill="#34495E"/>
</g>
</svg>
